<svg width="855" height="699" viewBox="0 0 855 699" fill="none" xmlns="http://www.w3.org/2000/svg">
<g id="bs-polygons">
<path id="corpus-n" d="M171 250H100V542H153.5V569L127 584L171 661.5L166.5 674L207.5 696.5L258 626H273.5V569H190L182.5 560.5V536H207.5V250H197V233H171V250Z" fill="#D9D9D9" fill-opacity="0.01"/>
<path id="corpus-v" d="M171 233H197V219H306V148.5H146.5V219H171V233Z" fill="#D9D9D9" fill-opacity="0.01"/>
<path id="corpus-a" d="M322 160H306V186.5H316V284.5H384.5V317H552V136.5H427V125.5C421.667 125.833 410.8 126.3 410 125.5C409.2 124.7 409.667 113.5 410 108H342V132H322V160Z" fill="#D9D9D9" fill-opacity="0.01"/>
<path id="corpus-b" d="M489.5 83.5V136.5H552.5V179H572V218H804.5V101H745.5V127.5H627V83.5H489.5Z" fill="#D9D9D9" fill-opacity="0.01"/>
</g>
</svg>
