<svg width="989" height="128" viewBox="0 0 989 128" fill="none" xmlns="http://www.w3.org/2000/svg">
<rect width="989" height="128" fill="#1C1C1C" fill-opacity="0.5"/>
<path d="M170.64 53.384C166.736 53.384 163.632 51.88 161.328 48.872C159.056 45.832 157.92 41.512 157.92 35.912V35.144C157.92 29.608 159.136 25.32 161.568 22.28C164 19.208 167.152 17.672 171.024 17.672C174.288 17.672 177.04 18.792 179.28 21.032L175.632 26.168C174.128 24.6 172.576 23.816 170.976 23.816C169.088 23.816 167.536 24.824 166.32 26.84C165.104 28.856 164.496 31.704 164.496 35.384V35.624C164.496 39.432 165.104 42.328 166.32 44.312C167.568 46.264 169.088 47.24 170.88 47.24C172.608 47.24 174.288 46.376 175.92 44.648L179.328 49.64C176.736 52.136 173.84 53.384 170.64 53.384ZM196.88 26.12L203.072 47.384H205.472V58.472H199.952V53H186.944V58.472H181.424V47.384H183.824L190.016 26.12H196.88ZM193.424 33.8L189.824 47.624H196.928L193.424 33.8ZM217.461 53.528C214.357 53.528 211.781 52.328 209.733 49.928C207.717 47.528 206.709 44.264 206.709 40.136V39.32C206.709 35.256 207.621 31.992 209.445 29.528C211.301 27.064 213.653 25.832 216.501 25.832C219.509 25.832 221.829 27.08 223.461 29.576C225.125 32.04 225.957 35.384 225.957 39.608C225.957 40.44 225.941 41.32 225.909 42.248H212.901C213.125 44.136 213.669 45.576 214.533 46.568C215.429 47.528 216.565 48.008 217.941 48.008C219.445 48.008 221.013 47.192 222.645 45.56L225.381 50.168C222.949 52.408 220.309 53.528 217.461 53.528ZM212.853 37.736H220.005C219.845 33.352 218.677 31.16 216.501 31.16C215.445 31.16 214.597 31.72 213.957 32.84C213.317 33.96 212.949 35.592 212.853 37.736ZM241.52 26.12L249.152 53H242.72L238.256 35.144L233.84 53H227.552L235.088 26.12H241.52ZM257.621 53.432C255.733 53.432 254.165 52.728 252.917 51.32C251.701 49.88 251.093 47.928 251.093 45.464V44.936C251.093 42.088 251.765 39.96 253.109 38.552C254.485 37.112 256.357 36.392 258.725 36.392C260.165 36.392 261.717 36.744 263.381 37.448V36.152C263.381 34.648 262.997 33.512 262.229 32.744C261.461 31.976 260.389 31.592 259.013 31.592C257.317 31.592 255.701 32.136 254.165 33.224L252.293 28.088C254.821 26.68 257.365 25.976 259.925 25.976C262.965 25.976 265.317 26.808 266.981 28.472C268.645 30.136 269.477 32.632 269.477 35.96V53H263.333V50.072C261.989 52.312 260.085 53.432 257.621 53.432ZM259.829 48.584C260.821 48.648 261.653 48.328 262.325 47.624C263.029 46.92 263.381 46.008 263.381 44.888V41.576C262.421 41.096 261.413 40.856 260.357 40.856C258.181 40.856 257.093 42.168 257.093 44.792V44.888C257.093 47.192 258.005 48.424 259.829 48.584ZM274.182 53V26.264H280.422V36.632H286.95V26.264H293.142V53H286.95V42.44H280.422V53H274.182ZM315.081 49.928C313.161 52.328 310.681 53.528 307.641 53.528C304.601 53.528 302.121 52.328 300.201 49.928C298.281 47.528 297.321 44.296 297.321 40.232V39.224C297.321 35.16 298.281 31.912 300.201 29.48C302.153 27.048 304.633 25.832 307.641 25.832C310.681 25.832 313.161 27.048 315.081 29.48C317.033 31.912 318.009 35.144 318.009 39.176V40.184C318.009 44.28 317.033 47.528 315.081 49.928ZM307.641 48.056C308.985 48.056 310.009 47.336 310.713 45.896C311.449 44.456 311.817 42.488 311.817 39.992V39.416C311.817 36.888 311.449 34.904 310.713 33.464C310.009 32.024 308.985 31.304 307.641 31.304C306.329 31.304 305.305 32.024 304.569 33.464C303.865 34.904 303.513 36.888 303.513 39.416V39.992C303.513 42.424 303.881 44.376 304.617 45.848C305.353 47.32 306.361 48.056 307.641 48.056ZM341.337 53.528C338.297 53.528 335.865 52.344 334.041 49.976C332.217 47.608 331.305 44.376 331.305 40.28V39.176C331.305 35.112 332.265 31.88 334.185 29.48C336.137 27.048 338.665 25.832 341.769 25.832C344.041 25.832 346.201 26.664 348.249 28.328L345.369 33.512C344.249 32.264 343.113 31.64 341.961 31.64C340.617 31.64 339.545 32.344 338.745 33.752C337.945 35.128 337.545 37.048 337.545 39.512V39.848C337.545 42.376 337.913 44.328 338.649 45.704C339.417 47.048 340.521 47.72 341.961 47.72C343.081 47.72 344.233 47.064 345.417 45.752L348.249 50.504C346.393 52.52 344.089 53.528 341.337 53.528ZM355.707 53V31.976H349.995V26.264H367.659V31.976H361.947V53H355.707ZM379.811 43.736L383.747 26.264H389.987L382.787 53C382.083 55.624 381.187 57.48 380.099 58.568C379.011 59.688 377.555 60.248 375.731 60.248C374.067 60.248 372.531 59.816 371.123 58.952L372.419 54.104C373.315 54.584 374.131 54.824 374.867 54.824C375.923 54.824 376.595 54.2 376.883 52.952L369.443 26.264H375.827L379.811 43.736ZM404.912 26.12L411.104 47.384H413.504V58.472H407.984V53H394.976V58.472H389.456V47.384H391.855L398.048 26.12H404.912ZM401.456 33.8L397.856 47.624H404.96L401.456 33.8ZM425.492 53.528C422.388 53.528 419.812 52.328 417.764 49.928C415.748 47.528 414.74 44.264 414.74 40.136V39.32C414.74 35.256 415.652 31.992 417.476 29.528C419.332 27.064 421.684 25.832 424.532 25.832C427.54 25.832 429.86 27.08 431.492 29.576C433.156 32.04 433.988 35.384 433.988 39.608C433.988 40.44 433.972 41.32 433.94 42.248H420.932C421.156 44.136 421.7 45.576 422.564 46.568C423.46 47.528 424.596 48.008 425.972 48.008C427.476 48.008 429.044 47.192 430.676 45.56L433.412 50.168C430.98 52.408 428.34 53.528 425.492 53.528ZM420.884 37.736H428.036C427.876 33.352 426.708 31.16 424.532 31.16C423.476 31.16 422.628 31.72 421.988 32.84C421.348 33.96 420.98 35.592 420.884 37.736ZM437.87 53V26.264H444.11V36.632H450.638V26.264H456.83V53H450.638V42.44H444.11V53H437.87ZM466.144 53V31.976H460.432V26.264H478.096V31.976H472.384V53H466.144ZM486.043 53.432C484.155 53.432 482.587 52.728 481.339 51.32C480.123 49.88 479.515 47.928 479.515 45.464V44.936C479.515 42.088 480.187 39.96 481.531 38.552C482.907 37.112 484.779 36.392 487.147 36.392C488.587 36.392 490.139 36.744 491.803 37.448V36.152C491.803 34.648 491.419 33.512 490.651 32.744C489.883 31.976 488.811 31.592 487.435 31.592C485.739 31.592 484.123 32.136 482.587 33.224L480.715 28.088C483.243 26.68 485.787 25.976 488.347 25.976C491.387 25.976 493.739 26.808 495.403 28.472C497.067 30.136 497.899 32.632 497.899 35.96V53H491.755V50.072C490.411 52.312 488.507 53.432 486.043 53.432ZM488.251 48.584C489.243 48.648 490.075 48.328 490.747 47.624C491.451 46.92 491.803 46.008 491.803 44.888V41.576C490.843 41.096 489.835 40.856 488.779 40.856C486.603 40.856 485.515 42.168 485.515 44.792V44.888C485.515 47.192 486.427 48.424 488.251 48.584ZM502.604 53V26.264H508.94L513.548 36.344L518.108 26.264H524.492V53H518.444V37.16L513.596 47.432H513.5L508.652 37.208V53H502.604ZM529.37 53V26.264H535.562V40.712L542.474 26.264H548.33V53H542.186V38.408L535.082 53H529.37ZM563.167 53V26.264H582.127V53H575.935V32.024H569.407V53H563.167ZM587.073 60.056V26.264H593.313V29.912C594.849 27.16 596.865 25.784 599.361 25.784C601.697 25.784 603.601 26.856 605.073 29C606.577 31.144 607.329 34.44 607.329 38.888V40.424C607.329 44.776 606.577 48.04 605.073 50.216C603.569 52.392 601.665 53.48 599.361 53.48C596.929 53.48 594.913 52.168 593.313 49.544V60.056H587.073ZM597.249 47.816C598.401 47.816 599.329 47.128 600.033 45.752C600.737 44.344 601.089 42.456 601.089 40.088V39.224C601.089 36.824 600.737 34.936 600.033 33.56C599.329 32.184 598.401 31.496 597.249 31.496C596.065 31.496 595.105 32.184 594.369 33.56C593.633 34.936 593.265 36.808 593.265 39.176V40.088C593.265 42.456 593.633 44.344 594.369 45.752C595.105 47.128 596.065 47.816 597.249 47.816ZM628.534 49.928C626.614 52.328 624.134 53.528 621.094 53.528C618.054 53.528 615.574 52.328 613.654 49.928C611.734 47.528 610.774 44.296 610.774 40.232V39.224C610.774 35.16 611.734 31.912 613.654 29.48C615.606 27.048 618.086 25.832 621.094 25.832C624.134 25.832 626.614 27.048 628.534 29.48C630.486 31.912 631.462 35.144 631.462 39.176V40.184C631.462 44.28 630.486 47.528 628.534 49.928ZM621.094 48.056C622.438 48.056 623.462 47.336 624.166 45.896C624.902 44.456 625.27 42.488 625.27 39.992V39.416C625.27 36.888 624.902 34.904 624.166 33.464C623.462 32.024 622.438 31.304 621.094 31.304C619.782 31.304 618.758 32.024 618.022 33.464C617.318 34.904 616.966 36.888 616.966 39.416V39.992C616.966 42.424 617.334 44.376 618.07 45.848C618.806 47.32 619.814 48.056 621.094 48.056ZM645.477 53.528C642.373 53.528 639.797 52.328 637.749 49.928C635.733 47.528 634.725 44.264 634.725 40.136V39.32C634.725 35.256 635.637 31.992 637.461 29.528C639.317 27.064 641.669 25.832 644.517 25.832C647.525 25.832 649.845 27.08 651.477 29.576C653.141 32.04 653.973 35.384 653.973 39.608C653.973 40.44 653.957 41.32 653.925 42.248H640.917C641.141 44.136 641.685 45.576 642.549 46.568C643.445 47.528 644.581 48.008 645.957 48.008C647.461 48.008 649.029 47.192 650.661 45.56L653.397 50.168C650.965 52.408 648.325 53.528 645.477 53.528ZM640.869 37.736H648.021C647.861 33.352 646.693 31.16 644.517 31.16C643.461 31.16 642.613 31.72 641.973 32.84C641.333 33.96 640.965 35.592 640.869 37.736ZM664.094 26.264V36.728H665.438L670.526 26.264H677.438L670.574 39.224L677.534 53H670.67L665.534 42.344H664.094V53H657.854V26.264H664.094ZM684.488 53V31.976H678.776V26.264H696.44V31.976H690.728V53H684.488ZM704.387 53.432C702.499 53.432 700.931 52.728 699.683 51.32C698.467 49.88 697.859 47.928 697.859 45.464V44.936C697.859 42.088 698.531 39.96 699.875 38.552C701.251 37.112 703.123 36.392 705.491 36.392C706.931 36.392 708.483 36.744 710.147 37.448V36.152C710.147 34.648 709.763 33.512 708.995 32.744C708.227 31.976 707.155 31.592 705.779 31.592C704.083 31.592 702.467 32.136 700.931 33.224L699.059 28.088C701.587 26.68 704.131 25.976 706.691 25.976C709.731 25.976 712.083 26.808 713.747 28.472C715.411 30.136 716.243 32.632 716.243 35.96V53H710.099V50.072C708.755 52.312 706.851 53.432 704.387 53.432ZM706.595 48.584C707.587 48.648 708.419 48.328 709.091 47.624C709.795 46.92 710.147 46.008 710.147 44.888V41.576C709.187 41.096 708.179 40.856 707.123 40.856C704.947 40.856 703.859 42.168 703.859 44.792V44.888C703.859 47.192 704.771 48.424 706.595 48.584ZM168.96 90.936V84.984C168.96 79.448 171.584 76.408 176.832 75.864L177.36 78.456C174.192 79.128 172.752 80.904 173.04 83.784H176.016V90.936H168.96ZM158.448 90.936V84.984C158.448 79.448 161.072 76.408 166.32 75.864L166.896 78.456C163.728 79.096 162.288 80.872 162.576 83.784H165.552V90.936H158.448ZM181.755 111V76.056H203.451V111H197.067V82.056H188.187V111H181.755ZM217.624 101.736L221.56 84.264H227.8L220.6 111C219.896 113.624 219 115.48 217.912 116.568C216.824 117.688 215.368 118.248 213.544 118.248C211.88 118.248 210.344 117.816 208.936 116.952L210.232 112.104C211.128 112.584 211.944 112.824 212.68 112.824C213.736 112.824 214.408 112.2 214.696 110.952L207.256 84.264H213.64L217.624 101.736ZM235.191 111V89.976H229.479V84.264H247.143V89.976H241.431V111H235.191ZM259.461 111.528C256.357 111.528 253.781 110.328 251.733 107.928C249.717 105.528 248.709 102.264 248.709 98.136V97.32C248.709 93.256 249.621 89.992 251.445 87.528C253.301 85.064 255.653 83.832 258.501 83.832C261.509 83.832 263.829 85.08 265.461 87.576C267.125 90.04 267.957 93.384 267.957 97.608C267.957 98.44 267.941 99.32 267.909 100.248H254.901C255.125 102.136 255.669 103.576 256.533 104.568C257.429 105.528 258.565 106.008 259.941 106.008C261.445 106.008 263.013 105.192 264.645 103.56L267.381 108.168C264.949 110.408 262.309 111.528 259.461 111.528ZM254.853 95.736H262.005C261.845 91.352 260.677 89.16 258.501 89.16C257.445 89.16 256.597 89.72 255.957 90.84C255.317 91.96 254.949 93.592 254.853 95.736ZM271.839 111V84.264H280.239C283.279 84.264 285.599 84.856 287.199 86.04C288.831 87.192 289.647 88.904 289.647 91.176V91.272C289.647 93.96 288.335 95.944 285.711 97.224C288.687 98.28 290.175 100.296 290.175 103.272V103.464C290.175 105.864 289.279 107.72 287.487 109.032C285.695 110.344 283.311 111 280.335 111H271.839ZM277.935 95.256H279.903C282.335 95.256 283.551 94.2 283.551 92.088V92.04C283.551 90.088 282.367 89.112 279.999 89.112H277.935V95.256ZM277.935 99.768V106.152H280.239C282.799 106.152 284.079 105.096 284.079 102.984V102.936C284.079 100.824 282.767 99.768 280.143 99.768H277.935ZM310.956 107.928C309.036 110.328 306.556 111.528 303.516 111.528C300.476 111.528 297.996 110.328 296.076 107.928C294.156 105.528 293.196 102.296 293.196 98.232V97.224C293.196 93.16 294.156 89.912 296.076 87.48C298.028 85.048 300.508 83.832 303.516 83.832C306.556 83.832 309.036 85.048 310.956 87.48C312.908 89.912 313.884 93.144 313.884 97.176V98.184C313.884 102.28 312.908 105.528 310.956 107.928ZM303.516 106.056C304.86 106.056 305.884 105.336 306.588 103.896C307.324 102.456 307.692 100.488 307.692 97.992V97.416C307.692 94.888 307.324 92.904 306.588 91.464C305.884 90.024 304.86 89.304 303.516 89.304C302.204 89.304 301.18 90.024 300.444 91.464C299.74 92.904 299.388 94.888 299.388 97.416V97.992C299.388 100.424 299.756 102.376 300.492 103.848C301.228 105.32 302.236 106.056 303.516 106.056ZM330.615 84.12L336.807 105.384H339.207V116.472H333.687V111H320.679V116.472H315.159V105.384H317.559L323.751 84.12H330.615ZM327.159 91.8L323.559 105.624H330.663L327.159 91.8ZM342.479 111V84.264H348.671V98.712L355.583 84.264H361.439V111H355.295V96.408L348.191 111H342.479ZM370.707 111V89.976H364.995V84.264H382.659V89.976H376.947V111H370.707ZM394.977 111.528C391.873 111.528 389.297 110.328 387.249 107.928C385.233 105.528 384.225 102.264 384.225 98.136V97.32C384.225 93.256 385.137 89.992 386.961 87.528C388.817 85.064 391.169 83.832 394.017 83.832C397.025 83.832 399.345 85.08 400.977 87.576C402.641 90.04 403.473 93.384 403.473 97.608C403.473 98.44 403.457 99.32 403.425 100.248H390.417C390.641 102.136 391.185 103.576 392.049 104.568C392.945 105.528 394.081 106.008 395.457 106.008C396.961 106.008 398.529 105.192 400.161 103.56L402.897 108.168C400.465 110.408 397.825 111.528 394.977 111.528ZM390.369 95.736H397.521C397.361 91.352 396.193 89.16 394.017 89.16C392.961 89.16 392.113 89.72 391.473 90.84C390.833 91.96 390.465 93.592 390.369 95.736ZM419.035 84.12L426.667 111H420.235L415.771 93.144L411.355 111H405.067L412.603 84.12H419.035ZM429.901 111V84.264H436.141V92.232H437.965C440.909 92.232 443.293 93 445.117 94.536C446.941 96.072 447.853 98.376 447.853 101.448V101.544C447.853 104.52 446.893 106.84 444.973 108.504C443.085 110.168 440.445 111 437.053 111H429.901ZM436.141 105.912H437.581C438.925 105.912 439.933 105.528 440.605 104.76C441.309 103.992 441.661 102.952 441.661 101.64V101.592C441.661 100.28 441.309 99.24 440.605 98.472C439.933 97.672 438.941 97.288 437.629 97.32H436.141V105.912ZM461.354 111V84.264H480.314V111H474.122V90.024H467.594V111H461.354ZM502.253 107.928C500.333 110.328 497.853 111.528 494.812 111.528C491.773 111.528 489.293 110.328 487.373 107.928C485.453 105.528 484.493 102.296 484.493 98.232V97.224C484.493 93.16 485.453 89.912 487.373 87.48C489.325 85.048 491.805 83.832 494.812 83.832C497.853 83.832 500.333 85.048 502.253 87.48C504.205 89.912 505.181 93.144 505.181 97.176V98.184C505.181 102.28 504.205 105.528 502.253 107.928ZM494.812 106.056C496.157 106.056 497.181 105.336 497.885 103.896C498.621 102.456 498.989 100.488 498.989 97.992V97.416C498.989 94.888 498.621 92.904 497.885 91.464C497.181 90.024 496.157 89.304 494.812 89.304C493.501 89.304 492.477 90.024 491.741 91.464C491.037 92.904 490.685 94.888 490.685 97.416V97.992C490.685 100.424 491.053 102.376 491.789 103.848C492.525 105.32 493.533 106.056 494.812 106.056ZM519.677 111V76.056H526.253L532.589 89.976L538.877 76.056H545.501V111H539.213V88.728L532.589 102.984H532.493L525.869 88.824V111H519.677ZM567.784 107.928C565.864 110.328 563.384 111.528 560.344 111.528C557.304 111.528 554.824 110.328 552.904 107.928C550.984 105.528 550.024 102.296 550.024 98.232V97.224C550.024 93.16 550.984 89.912 552.904 87.48C554.856 85.048 557.336 83.832 560.344 83.832C563.384 83.832 565.864 85.048 567.784 87.48C569.736 89.912 570.712 93.144 570.712 97.176V98.184C570.712 102.28 569.736 105.528 567.784 107.928ZM560.344 106.056C561.688 106.056 562.712 105.336 563.416 103.896C564.152 102.456 564.52 100.488 564.52 97.992V97.416C564.52 94.888 564.152 92.904 563.416 91.464C562.712 90.024 561.688 89.304 560.344 89.304C559.032 89.304 558.008 90.024 557.272 91.464C556.568 92.904 556.216 94.888 556.216 97.416V97.992C556.216 100.424 556.584 102.376 557.32 103.848C558.056 105.32 559.064 106.056 560.344 106.056ZM584.103 111.528C581.063 111.528 578.631 110.344 576.807 107.976C574.983 105.608 574.071 102.376 574.071 98.28V97.176C574.071 93.112 575.031 89.88 576.951 87.48C578.903 85.048 581.431 83.832 584.535 83.832C586.807 83.832 588.967 84.664 591.015 86.328L588.135 91.512C587.015 90.264 585.879 89.64 584.727 89.64C583.383 89.64 582.311 90.344 581.511 91.752C580.711 93.128 580.311 95.048 580.311 97.512V97.848C580.311 100.376 580.679 102.328 581.415 103.704C582.183 105.048 583.287 105.72 584.727 105.72C585.847 105.72 586.999 105.064 588.183 103.752L591.015 108.504C589.159 110.52 586.855 111.528 584.103 111.528ZM600.579 84.264V94.728H601.923L607.011 84.264H613.923L607.059 97.224L614.019 111H607.155L602.019 100.344H600.579V111H594.339V84.264H600.579ZM632.94 107.928C631.02 110.328 628.54 111.528 625.5 111.528C622.46 111.528 619.98 110.328 618.06 107.928C616.14 105.528 615.18 102.296 615.18 98.232V97.224C615.18 93.16 616.14 89.912 618.06 87.48C620.012 85.048 622.492 83.832 625.5 83.832C628.54 83.832 631.02 85.048 632.94 87.48C634.892 89.912 635.868 93.144 635.868 97.176V98.184C635.868 102.28 634.892 105.528 632.94 107.928ZM625.5 106.056C626.844 106.056 627.868 105.336 628.572 103.896C629.308 102.456 629.676 100.488 629.676 97.992V97.416C629.676 94.888 629.308 92.904 628.572 91.464C627.868 90.024 626.844 89.304 625.5 89.304C624.188 89.304 623.164 90.024 622.428 91.464C621.724 92.904 621.372 94.888 621.372 97.416V97.992C621.372 100.424 621.74 102.376 622.476 103.848C623.212 105.32 624.22 106.056 625.5 106.056ZM639.995 111V84.264H648.395C651.435 84.264 653.755 84.856 655.355 86.04C656.987 87.192 657.803 88.904 657.803 91.176V91.272C657.803 93.96 656.491 95.944 653.867 97.224C656.843 98.28 658.331 100.296 658.331 103.272V103.464C658.331 105.864 657.435 107.72 655.643 109.032C653.851 110.344 651.467 111 648.491 111H639.995ZM646.091 95.256H648.059C650.491 95.256 651.707 94.2 651.707 92.088V92.04C651.707 90.088 650.523 89.112 648.155 89.112H646.091V95.256ZM646.091 99.768V106.152H648.395C650.955 106.152 652.235 105.096 652.235 102.984V102.936C652.235 100.824 650.923 99.768 648.299 99.768H646.091ZM671.384 111.528C668.344 111.528 665.912 110.344 664.088 107.976C662.264 105.608 661.352 102.376 661.352 98.28V97.176C661.352 93.112 662.312 89.88 664.232 87.48C666.184 85.048 668.712 83.832 671.816 83.832C674.088 83.832 676.248 84.664 678.296 86.328L675.416 91.512C674.296 90.264 673.16 89.64 672.008 89.64C670.664 89.64 669.592 90.344 668.792 91.752C667.992 93.128 667.592 95.048 667.592 97.512V97.848C667.592 100.376 667.96 102.328 668.696 103.704C669.464 105.048 670.568 105.72 672.008 105.72C673.128 105.72 674.28 105.064 675.464 103.752L678.296 108.504C676.44 110.52 674.136 111.528 671.384 111.528ZM687.86 84.264V94.728H689.204L694.292 84.264H701.204L694.34 97.224L701.3 111H694.436L689.3 100.344H687.86V111H681.62V84.264H687.86ZM720.221 107.928C718.301 110.328 715.821 111.528 712.781 111.528C709.741 111.528 707.261 110.328 705.341 107.928C703.421 105.528 702.461 102.296 702.461 98.232V97.224C702.461 93.16 703.421 89.912 705.341 87.48C707.293 85.048 709.773 83.832 712.781 83.832C715.821 83.832 718.301 85.048 720.221 87.48C722.173 89.912 723.149 93.144 723.149 97.176V98.184C723.149 102.28 722.173 105.528 720.221 107.928ZM712.781 106.056C714.125 106.056 715.149 105.336 715.853 103.896C716.589 102.456 716.957 100.488 716.957 97.992V97.416C716.957 94.888 716.589 92.904 715.853 91.464C715.149 90.024 714.125 89.304 712.781 89.304C711.469 89.304 710.445 90.024 709.709 91.464C709.005 92.904 708.653 94.888 708.653 97.416V97.992C708.653 100.424 709.021 102.376 709.757 103.848C710.493 105.32 711.501 106.056 712.781 106.056ZM727.276 111V84.264H733.612L738.22 94.344L742.78 84.264H749.164V111H743.116V95.16L738.268 105.432H738.172L733.324 95.208V111H727.276ZM762.874 101.736L766.81 84.264H773.05L765.85 111C765.146 113.624 764.25 115.48 763.162 116.568C762.074 117.688 760.618 118.248 758.794 118.248C757.13 118.248 755.594 117.816 754.186 116.952L755.482 112.104C756.378 112.584 757.194 112.824 757.93 112.824C758.986 112.824 759.658 112.2 759.946 110.952L752.506 84.264H758.89L762.874 101.736ZM786.818 111V76.056H808.514V111H802.13V82.056H793.25V111H786.818ZM830.846 107.928C828.926 110.328 826.446 111.528 823.406 111.528C820.366 111.528 817.886 110.328 815.966 107.928C814.046 105.528 813.086 102.296 813.086 98.232V97.224C813.086 93.16 814.046 89.912 815.966 87.48C817.918 85.048 820.398 83.832 823.406 83.832C826.446 83.832 828.926 85.048 830.846 87.48C832.798 89.912 833.774 93.144 833.774 97.176V98.184C833.774 102.28 832.798 105.528 830.846 107.928ZM823.406 106.056C824.75 106.056 825.774 105.336 826.478 103.896C827.214 102.456 827.582 100.488 827.582 97.992V97.416C827.582 94.888 827.214 92.904 826.478 91.464C825.774 90.024 824.75 89.304 823.406 89.304C822.094 89.304 821.07 90.024 820.334 91.464C819.63 92.904 819.278 94.888 819.278 97.416V97.992C819.278 100.424 819.646 102.376 820.382 103.848C821.118 105.32 822.126 106.056 823.406 106.056ZM849.16 84.12L856.792 111H850.36L845.896 93.144L841.48 111H835.192L842.728 84.12H849.16ZM860.026 111V84.264H866.218V98.712L873.13 84.264H878.986V111H872.842V96.408L865.738 111H860.026ZM888.254 111V89.976H882.542V84.264H900.206V89.976H894.494V111H888.254ZM912.523 111.528C909.42 111.528 906.844 110.328 904.796 107.928C902.78 105.528 901.771 102.264 901.771 98.136V97.32C901.771 93.256 902.684 89.992 904.508 87.528C906.364 85.064 908.716 83.832 911.564 83.832C914.572 83.832 916.892 85.08 918.524 87.576C920.188 90.04 921.02 93.384 921.02 97.608C921.02 98.44 921.004 99.32 920.972 100.248H907.964C908.188 102.136 908.732 103.576 909.596 104.568C910.492 105.528 911.628 106.008 913.004 106.008C914.508 106.008 916.076 105.192 917.708 103.56L920.444 108.168C918.012 110.408 915.372 111.528 912.523 111.528ZM907.916 95.736H915.068C914.908 91.352 913.74 89.16 911.564 89.16C910.508 89.16 909.66 89.72 909.02 90.84C908.38 91.96 908.012 93.592 907.916 95.736ZM929.19 84.264L932.598 92.376L936.054 84.264H942.438L936.198 97.32L942.678 111H936.102L932.55 102.312L928.95 111H922.47L928.902 97.368L922.662 84.264H929.19ZM954.124 101.736L958.06 84.264H964.3L957.1 111C956.396 113.624 955.5 115.48 954.412 116.568C953.324 117.688 951.868 118.248 950.044 118.248C948.38 118.248 946.844 117.816 945.436 116.952L946.732 112.104C947.628 112.584 948.444 112.824 949.18 112.824C950.236 112.824 950.908 112.2 951.196 110.952L943.756 84.264H950.14L954.124 101.736ZM977.778 91.128L977.25 88.488C980.418 87.912 981.858 86.152 981.57 83.208H978.594V76.056H985.698V82.008C985.698 87.544 983.058 90.584 977.778 91.128ZM967.314 91.128L966.786 88.488C969.954 87.912 971.394 86.152 971.106 83.208H968.13V76.056H975.186V82.008C975.186 87.544 972.562 90.584 967.314 91.128Z" fill="#D9D9D9"/>
<g clip-path="url(#clip0_231_1392)">
<rect width="128" height="128" rx="16" fill="url(#paint0_radial_231_1392)"/>
<path d="M36 44C36 64 56 84 64 112C72 84 92 64 92 44C92 28.8 80 16 64 16C48 16 36 28.8 36 44Z" stroke="url(#paint1_angular_231_1392)" stroke-width="16" stroke-linejoin="round"/>
<path d="M56.3078 114.198C57.5216 118.446 61.9495 120.906 66.1978 119.692C70.446 118.478 72.906 114.051 71.6922 109.802L56.3078 114.198ZM71.6922 109.802C67.3927 94.7542 59.8608 81.8715 54.0232 71.1692C47.8659 59.8809 44 51.6404 44 44H28C28 56.3596 34.1341 68.1191 39.9768 78.8308C46.1392 90.1285 52.6073 101.246 56.3078 114.198L71.6922 109.802ZM44 44C44 33.0682 52.5669 24 64 24V8C43.4331 8 28 24.5318 28 44H44Z" fill="url(#paint2_angular_231_1392)"/>
<path fill-rule="evenodd" clip-rule="evenodd" d="M45.0712 98.1424C40.7165 99.1912 36.8545 100.576 33.6366 102.185C25.8007 106.103 24 110.035 24 112C24 113.965 25.8007 117.897 33.6366 121.815C40.9939 125.494 51.7178 128 64 128C76.2822 128 87.0061 125.494 94.3634 121.815C102.199 117.897 104 113.965 104 112C104 110.035 102.199 106.103 94.3634 102.185C91.1455 100.576 87.2835 99.1912 82.9288 98.1424L90.2354 83.5293C94.3143 84.7098 98.1059 86.1676 101.519 87.8741C111.056 92.6424 120 100.71 120 112C120 123.29 111.056 131.358 101.519 136.126C91.5036 141.134 78.2275 144 64 144C49.7725 144 36.4964 141.134 26.4812 136.126C16.9444 131.358 8 123.29 8 112C8 100.71 16.9444 92.6424 26.4812 87.8741C29.8941 86.1676 33.6857 84.7098 37.7646 83.5293L45.0712 98.1424Z" fill="url(#paint3_angular_231_1392)"/>
</g>
<defs>
<radialGradient id="paint0_radial_231_1392" cx="0" cy="0" r="1" gradientUnits="userSpaceOnUse" gradientTransform="translate(64 64) rotate(90) scale(112)">
<stop stop-color="#282C41"/>
<stop offset="1" stop-color="#0B1231"/>
</radialGradient>
<radialGradient id="paint1_angular_231_1392" cx="0" cy="0" r="1" gradientUnits="userSpaceOnUse" gradientTransform="translate(64 48) rotate(90) scale(68 68.3703)">
<stop stop-color="#9CBBFF"/>
<stop offset="0.609375" stop-color="#809BEC"/>
<stop offset="1" stop-color="#3D50BE"/>
</radialGradient>
<radialGradient id="paint2_angular_231_1392" cx="0" cy="0" r="1" gradientUnits="userSpaceOnUse" gradientTransform="translate(64 48) rotate(82.875) scale(64.4981 32.4246)">
<stop stop-color="#9CBBFF"/>
<stop offset="0.609375" stop-color="#809BEC"/>
<stop offset="1" stop-color="#3D50BE"/>
</radialGradient>
<radialGradient id="paint3_angular_231_1392" cx="0" cy="0" r="1" gradientUnits="userSpaceOnUse" gradientTransform="translate(64 103.686) rotate(90) scale(42.8334 136.741)">
<stop stop-color="#9CBBFF"/>
<stop offset="0.609375" stop-color="#809BEC"/>
<stop offset="1" stop-color="#3D50BE"/>
</radialGradient>
<clipPath id="clip0_231_1392">
<rect width="128" height="128" rx="16" fill="white"/>
</clipPath>
</defs>
</svg>
